# xmcd CD Database Entry
#
# Track frame offsets:
# 150
# 3530
# 7907
# 11085
# 14925
# 17870
# 21200
# 23260
# 25660
# 29520
# 35670
# 39085
# 41660
# 43835
# 47882
# 50132
# 51882
# 56477
# 58542
# 61625
# 64407
# 67772
# 70625
# 74480
# 76995
# 82687
# 85370
# 88210
# 90702
# 94172
# 97827
# 102975
# 108457
# 112325
# 118929
# 123557
# 130497
# 134570
# 137242
# 142220
# 146240
# 149082
# 152455
# 158032
# 162455
# 166552
# 169110
# 171617
# 174970
# 176940
# 179157
# 181415
# 183342
# 184935
# 189917
# 192212
# 196084
# 199710
# 203945
# 207102
# 210660
# 213045
# 216205
# 218995
# 223567
# 227460
# 229622
# 231690
# 233967
# 235940
# 238590
# 243885
# 248382
# 251500
# 254117
# 256172
# 258087
# 260147
# 263132
# 265945
# 268652
# 272767
# 275605
# 277982
# 281402
# 284315
# 287755
# 291120
# 293687
# 295867
# 298152
# 303562
# 306022
# 307730
# 312270
# 315817
# 317960
# 319680
# 323155
#
# Disc length: 4498 seconds
#
# Revision: 2
# Processed by: cddbd v1.4PL0 Copyright (c) Steve Scherf et al.
# Submitted via: tcd 2.0b
#
DISCID=d7119063
DTITLE=vogelstimmen1/ wasservögel, greifvögel
DYEAR=1900
DGENRE=
TTITLE0=sterntaucher
TTITLE1=prachttaucher
TTITLE2=Spur 3
TTITLE3=Spur 4
TTITLE4=Spur 5
TTITLE5=Spur 6
TTITLE6=Spur 7
TTITLE7=Spur 8
TTITLE8=Spur 9
TTITLE9=Spur 10
TTITLE10=Spur 11
TTITLE11=Spur 12
TTITLE12=Spur 13
TTITLE13=Spur 14
TTITLE14=Spur 15
TTITLE15=Spur 16
TTITLE16=Spur 17
TTITLE17=Spur 18
TTITLE18=Spur 19
TTITLE19=Spur 20
TTITLE20=Spur 21
TTITLE21=Spur 22
TTITLE22=Spur 23
TTITLE23=Spur 24
TTITLE24=Spur 25
TTITLE25=Spur 26
TTITLE26=Spur 27
TTITLE27=Spur 28
TTITLE28=Spur 29
TTITLE29=Spur 30
TTITLE30=Spur 31
TTITLE31=Spur 32
TTITLE32=Spur 33
TTITLE33=Spur 34
TTITLE34=Spur 35
TTITLE35=Spur 36
TTITLE36=Spur 37
TTITLE37=Spur 38
TTITLE38=Spur 39
TTITLE39=Spur 40
TTITLE40=Spur 41
TTITLE41=Spur 42
TTITLE42=Spur 43
TTITLE43=Spur 44
TTITLE44=Spur 45
TTITLE45=Spur 46
TTITLE46=Spur 47
TTITLE47=Spur 48
TTITLE48=Spur 49
TTITLE49=Spur 50
TTITLE50=Spur 51
TTITLE51=Spur 52
TTITLE52=Spur 53
TTITLE53=Spur 54
TTITLE54=Spur 55
TTITLE55=Spur 56
TTITLE56=Spur 57
TTITLE57=Spur 58
TTITLE58=Spur 59
TTITLE59=Spur 60
TTITLE60=Spur 61
TTITLE61=Spur 62
TTITLE62=Spur 63
TTITLE63=Spur 64
TTITLE64=Spur 65
TTITLE65=Spur 66
TTITLE66=Spur 67
TTITLE67=Spur 68
TTITLE68=Spur 69
TTITLE69=Spur 70
TTITLE70=Spur 71
TTITLE71=Spur 72
TTITLE72=Spur 73
TTITLE73=Spur 74
TTITLE74=Spur 75
TTITLE75=Spur 76
TTITLE76=Spur 77
TTITLE77=Spur 78
TTITLE78=Spur 79
TTITLE79=Spur 80
TTITLE80=Spur 81
TTITLE81=Spur 82
TTITLE82=Spur 83
TTITLE83=Spur 84
TTITLE84=Spur 85
TTITLE85=Spur 86
TTITLE86=Spur 87
TTITLE87=Spur 88
TTITLE88=Spur 89
TTITLE89=Spur 90
TTITLE90=Spur 91
TTITLE91=Spur 92
TTITLE92=Spur 93
TTITLE93=Spur 94
TTITLE94=Spur 95
TTITLE95=Spur 96
TTITLE96=Spur 97
TTITLE97=Spur 98
TTITLE98=Spur 99
EXTD=
EXTT0=sterntaucher
EXTT1=
EXTT2=
EXTT3=
EXTT4=
EXTT5=
EXTT6=
EXTT7=
EXTT8=
EXTT9=
EXTT10=
EXTT11=
EXTT12=
EXTT13=
EXTT14=
EXTT15=
EXTT16=
EXTT17=
EXTT18=
EXTT19=
EXTT20=
EXTT21=
EXTT22=
EXTT23=
EXTT24=
EXTT25=
EXTT26=
EXTT27=
EXTT28=
EXTT29=
EXTT30=
EXTT31=
EXTT32=
EXTT33=
EXTT34=
EXTT35=
EXTT36=
EXTT37=
EXTT38=
EXTT39=
EXTT40=
EXTT41=
EXTT42=
EXTT43=
EXTT44=
EXTT45=
EXTT46=
EXTT47=
EXTT48=
EXTT49=
EXTT50=
EXTT51=
EXTT52=
EXTT53=
EXTT54=
EXTT55=
EXTT56=
EXTT57=
EXTT58=
EXTT59=
EXTT60=
EXTT61=
EXTT62=
EXTT63=
EXTT64=
EXTT65=
EXTT66=
EXTT67=
EXTT68=
EXTT69=
EXTT70=
EXTT71=
EXTT72=
EXTT73=
EXTT74=
EXTT75=
EXTT76=
EXTT77=
EXTT78=
EXTT79=
EXTT80=
EXTT81=
EXTT82=
EXTT83=
EXTT84=
EXTT85=
EXTT86=
EXTT87=
EXTT88=
EXTT89=
EXTT90=
EXTT91=
EXTT92=
EXTT93=
EXTT94=
EXTT95=
EXTT96=
EXTT97=
EXTT98=
PLAYORDER=
